<?xml version="1.0" encoding="UTF-8" standalone="no"?>
<svg
   width="16"
   height="12"
   version="1.1"
   id="svg2"
   sodipodi:docname="big_int.svg"
   inkscape:version="1.3 (0e150ed6c4, 2023-07-21)"
   xmlns:inkscape="http://www.inkscape.org/namespaces/inkscape"
   xmlns:sodipodi="http://sodipodi.sourceforge.net/DTD/sodipodi-0.dtd"
   xmlns="http://www.w3.org/2000/svg"
   xmlns:svg="http://www.w3.org/2000/svg">
  <defs
     id="defs2" />
  <sodipodi:namedview
     id="namedview2"
     pagecolor="#505050"
     bordercolor="#ffffff"
     borderopacity="1"
     inkscape:showpageshadow="0"
     inkscape:pageopacity="0"
     inkscape:pagecheckerboard="1"
     inkscape:deskcolor="#505050"
     showgrid="true"
     inkscape:zoom="16"
     inkscape:cx="9.625"
     inkscape:cy="-1.75"
     inkscape:window-width="2560"
     inkscape:window-height="1387"
     inkscape:window-x="1912"
     inkscape:window-y="-8"
     inkscape:window-maximized="1"
     inkscape:current-layer="svg2">
    <inkscape:grid
       id="grid2"
       units="px"
       originx="0"
       originy="0"
       spacingx="1"
       spacingy="1"
       empcolor="#0099e5"
       empopacity="0.30196078"
       color="#0099e5"
       opacity="0.14901961"
       empspacing="5"
       dotted="false"
       gridanglex="30"
       gridanglez="30"
       visible="true" />
  </sodipodi:namedview>
  <path
     fill="#5abbef"
     d="M 5,2 V 4 H 7 V 2 Z M 7,4 V 6 H 5 v 4 c 1.393318,-0.00136 2.8623903,0 4,0 V 6 c 0.5522847,0 1,0.4477153 1,1 v 3 h 2 V 7 C 12,5.3431458 10.656854,4 9,4 Z m 5,3 c 0,1.6568542 1.343146,3 3,3 h 1 V 8 H 15 C 14.447715,8 14,7.5522847 14,7 V 6 h 2 V 4 H 14 V 2 h -2 z"
     id="path1"
     sodipodi:nodetypes="cccccccccccsccsscssccssccccccs" />
  <path
     fill="#ffffff"
     fill-opacity="0.4"
     d="M 7,10 H 9 V 6 c 0.5522847,0 1,0.4477153 1,1 v 3 h 2 V 7 C 12,5.3431458 10.656854,4 9,4 H 7 Z"
     id="path2"
     sodipodi:nodetypes="cccsccsscc" />
  <path
     id="path2-6"
     d="m 0,2 v 8 H 2 C 3.6568523,10 5,8.9254816 5,7.6 5,6.9854417 4.7111958,6.4245738 4.2363281,6 4.7111958,5.5754262 5,5.0145583 5,4.4 5,3.074518 3.6568523,2 2,2 Z m 2,1.6 c 0.5522841,0 1,0.3581727 1,0.8 0,0.4418273 -0.4477159,0.8 -1,0.8 z m 0,3.2 c 0.5522841,0 1,0.3581727 1,0.8 0,0.4418273 -0.4477159,0.8 -1,0.8 z"
     style="fill:#5abbef;fill-opacity:1;stroke-width:0.999996" />
  <path
     id="path8"
     d="m 0,2 v 8 H 2 C 3.6568523,10 5,8.9254816 5,7.6 5,6.9854417 4.7111958,6.4245738 4.2363281,6 4.7111958,5.5754262 5,5.0145583 5,4.4 5,3.074518 3.6568523,2 2,2 Z m 2,1.6 c 0.5522841,0 1,0.3581727 1,0.8 0,0.4418273 -0.4477159,0.8 -1,0.8 z m 0,3.2 c 0.5522841,0 1,0.3581727 1,0.8 0,0.4418273 -0.4477159,0.8 -1,0.8 z"
     style="fill:#ffffff;fill-opacity:0.40000001;stroke-width:0.999996" />
</svg>
